<svg xmlns="http://www.w3.org/2000/svg" width="259.234" height="107.843" viewBox="0 0 259.234 107.843">
  <g id="Group_302" data-name="Group 302" transform="translate(0.598 0.5)">
    <path id="Union_1" data-name="Union 1" d="M3485.613,1367.163q-5.958,0-5.957-5.7v-28.825q0-5.635,5.957-5.637h6.791q6.02,0,6.021,5.637v6.918h-5.893v-6.149a1.464,1.464,0,0,0-1.857-1.858h-3.267a2.384,2.384,0,0,0-1.538.352,2.09,2.09,0,0,0-.385,1.506v27.351a2.089,2.089,0,0,0,.385,1.506,2.373,2.373,0,0,0,1.538.353h3.267a1.465,1.465,0,0,0,1.857-1.859v-6.085h5.893v6.79q0,5.7-6.021,5.7Zm69.884-.064V1327h5.765v35.423h9.927v4.676Zm-9.929,0-1.6-9.289h-8.455l-1.472,9.289h-5.766l7.111-40.1h8.391l7.623,40.1Zm-9.352-13.965h6.982L3539.547,1332Zm-17.807,13.965v-17.615h-8.518V1367.1h-5.766V1327h5.766v17.807h8.518V1327h5.765v40.1Zm-48.36,0-1.6-9.289h-8.455l-1.472,9.289h-5.766l7.111-40.1h8.391l7.623,40.1Zm-9.353-13.965h6.982L3464.027,1332Zm-23,13.965v-12.683L3429.119,1327h5.892l5.573,22.1,5.253-22.1h5.892l-8.2,27.417V1367.1Zm-17.936,0v-17.615h-8.518V1367.1h-5.764V1327h5.764v17.807h8.518V1327h5.765v40.1Zm-40.545,0V1327h13.964q5.958,0,5.957,5.637v28.825q0,5.636-5.957,5.638Zm5.829-4.548h6.341a2.375,2.375,0,0,0,1.537-.352,2.1,2.1,0,0,0,.385-1.507v-27.287a2.09,2.09,0,0,0-.385-1.506,2.38,2.38,0,0,0-1.537-.352h-6.341ZM3366.6,1367.1l-8.455-28.954V1367.1h-5.317V1327h6.084l8.2,28.121V1327h5.317v40.1Zm-26.71,0V1327h5.765v40.1Zm-19.6,0-7.237-40.1h5.956l5.317,34.782,5.445-34.782h5.956l-7.237,40.1Z" transform="translate(-3313.054 -1327)" fill="#fff" stroke="rgba(0,0,0,0)" stroke-miterlimit="10" stroke-width="1"/>
    <path id="Union_2" data-name="Union 2" d="M3557.743,1371.067q-6.545,0-6.548-6.195V1358.4h6.407v5.491a2.3,2.3,0,0,0,.422,1.654,2.609,2.609,0,0,0,1.689.386h2.957a1.608,1.608,0,0,0,2.04-2.04v-10.772a1.61,1.61,0,0,0-2.04-2.041h-5.209q-6.407,0-6.406-6.264v-11.616q0-6.192,6.546-6.195h6.9q6.546,0,6.547,6.195v6.476h-6.406v-5.49a2.293,2.293,0,0,0-.423-1.654,2.605,2.605,0,0,0-1.688-.388h-2.957a2.607,2.607,0,0,0-1.689.388,2.3,2.3,0,0,0-.422,1.654v9.784a2.3,2.3,0,0,0,.422,1.655,2.607,2.607,0,0,0,1.689.387h5.138q6.475,0,6.477,6.195v12.671q0,6.2-6.616,6.195Zm-29.847,0V1327h18.656v5.139H3534.3v13.586h10.138v5.139H3534.3v15.064h12.742v5.139Zm-14.22,0V1327h6.337v44.068Zm-12.037,0-6.618-17.81h-3.449v17.81h-6.334V1327h14.43q6.548,0,6.547,6.195v13.8q0,5.35-4.716,6.124l6.97,17.951Zm-10.067-22.879h6.2a2.6,2.6,0,0,0,1.688-.386,2.294,2.294,0,0,0,.424-1.654v-11.967a2.291,2.291,0,0,0-.424-1.654,2.6,2.6,0,0,0-1.688-.388h-6.2Zm-30.479,22.879V1327h18.654v5.139H3467.5v13.586h10.137v5.139H3467.5v15.064h12.741v5.139Zm-21.189,0V1327h6.335v38.929h10.912v5.139Zm-21.189,0V1327h6.335v38.929h10.912v5.139Zm-14.221,0V1327h6.337v44.068Zm-18.3,0v-38.929H3378.8V1327h21.118v5.139h-7.391v38.929Zm-23.8,0q-6.546,0-6.547-6.195V1358.4h6.406v5.491a2.294,2.294,0,0,0,.423,1.654,2.609,2.609,0,0,0,1.689.386h2.957a1.609,1.609,0,0,0,2.041-2.04v-10.772a1.611,1.611,0,0,0-2.041-2.041h-5.21q-6.406,0-6.405-6.264v-11.616q0-6.192,6.547-6.195h6.9q6.547,0,6.547,6.195v6.476H3369.3v-5.49a2.3,2.3,0,0,0-.423-1.654,2.6,2.6,0,0,0-1.688-.388h-2.958a2.608,2.608,0,0,0-1.689.388,2.3,2.3,0,0,0-.423,1.654v9.784a2.3,2.3,0,0,0,.423,1.655,2.609,2.609,0,0,0,1.689.387h5.139q6.476,0,6.476,6.195v12.671q0,6.2-6.617,6.195Zm-19.921,0V1327h6.335v44.068Zm-29.424,0V1327H3328.4q6.547,0,6.548,6.195v31.678q0,6.2-6.548,6.195Zm6.405-5h6.97a2.622,2.622,0,0,0,1.69-.386,2.313,2.313,0,0,0,.421-1.655v-29.989a2.307,2.307,0,0,0-.421-1.654,2.614,2.614,0,0,0-1.69-.388h-6.97Z" transform="translate(-3313.054 -1264.225)" fill="#fff" stroke="rgba(0,0,0,0)" stroke-miterlimit="10" stroke-width="1"/>
    <g id="Group_3" data-name="Group 3" transform="translate(0 49.808)">
      <rect id="Rectangle_1" data-name="Rectangle 1" width="258.135" height="2.516" fill="#fff"/>
    </g>
  </g>
</svg>
